<svg width="54" height="54" viewBox="0 0 54 54" fill="none" xmlns="http://www.w3.org/2000/svg">
<circle cx="27" cy="27" r="27" fill="#0882FF"/>
<path d="M22 33.712H25.36V23.296H22V19.504H29.344V33.712H32.656V37.504H22V33.712ZM24.928 12.544C24.928 11.808 25.184 11.2 25.696 10.72C26.208 10.24 26.784 10 27.424 10C28.032 10 28.592 10.24 29.104 10.72C29.616 11.2 29.872 11.808 29.872 12.544C29.872 13.28 29.616 13.888 29.104 14.368C28.592 14.816 28.032 15.04 27.424 15.04C26.784 15.04 26.208 14.816 25.696 14.368C25.184 13.888 24.928 13.28 24.928 12.544Z" fill="white"/>
</svg>
